<svg width="64" height="64" viewBox="0 0 64 64" fill="none" xmlns="http://www.w3.org/2000/svg">
  <rect width="64" height="64" rx="16" fill="#0A0709"/>
  <rect x="1" y="1" width="62" height="62" rx="15" stroke="#FF4D1F" stroke-opacity="0.28"/>
  <path d="M32 10C32 10 20 22 20 34C20 40 24 44 28 44C28 37 30 34 32 34C34 34 36 37 36 44C40 44 44 40 44 34C44 22 32 10 32 10Z" fill="#FF4D1F"/>
  <path d="M32 54C39 54 44 49 44 43C44 39 41 37 37.5 36C36.5 40 34.5 42 32 42C29.5 42 27.5 40 26.5 36C23 37 20 39 20 43C20 49 25 54 32 54Z" fill="#FF8A4D"/>
</svg>
